<svg xmlns="http://www.w3.org/2000/svg">
    <!-- network1 -->
    <symbol viewBox="0 0 20 20" id="network1">
        <path d="M13.8528 2.50329L11.854 2.5C9.60842 2.5 8.15723 4.02942 8.15723 6.3966V8.1932H6.14754C5.97388 8.1932 5.83325 8.33782 5.83325 8.51621V11.1193C5.83325 11.2977 5.97404 11.4421 6.14754 11.4421H8.15723V18.0105C8.15723 18.1889 8.29786 18.3333 8.47152 18.3333H11.0936C11.2673 18.3333 11.4079 18.1887 11.4079 18.0105V11.4421H13.7577C13.9313 11.4421 14.072 11.2977 14.072 11.1193L14.0729 8.51621C14.0729 8.43056 14.0397 8.34853 13.9809 8.28791C13.922 8.2273 13.8419 8.1932 13.7585 8.1932H11.4079V6.6702C11.4079 5.93819 11.5777 5.56658 12.506 5.56658L13.8525 5.56609C14.026 5.56609 14.1666 5.42147 14.1666 5.24324V2.82614C14.1666 2.64808 14.0261 2.50362 13.8528 2.50329Z"/>
    </symbol>
    <!-- network2 -->
    <symbol viewBox="0 0 20 20" id="network2">
        <path d="M8.38574 11.5719L8.13761 15.0619C8.49261 15.0619 8.64636 14.9094 8.83074 14.7262L10.4951 13.1356L13.9439 15.6612C14.5764 16.0137 15.022 15.8281 15.1926 15.0794L17.4564 4.47187L17.457 4.47125C17.6576 3.53625 17.1189 3.17062 16.5026 3.4L3.19636 8.49437C2.28824 8.84687 2.30199 9.35312 3.04199 9.58249L6.44386 10.6406L14.3457 5.69625C14.7176 5.45 15.0557 5.58625 14.7776 5.8325L8.38574 11.5719Z"/>
    </symbol>
    <!-- network3 -->
    <symbol viewBox="0 0 20 20" id="network3">
        <path fill-rule="evenodd" clip-rule="evenodd" d="M2.91675 9.99984C2.91675 8.52799 2.91675 7.79207 3.05673 7.18353C3.52884 5.13118 5.13142 3.5286 7.18377 3.05649C7.79231 2.9165 8.52824 2.9165 10.0001 2.9165C11.4719 2.9165 12.2079 2.9165 12.8164 3.05649C14.8687 3.5286 16.4713 5.13118 16.9434 7.18353C17.0834 7.79207 17.0834 8.52799 17.0834 9.99984C17.0834 11.4717 17.0834 12.2076 16.9434 12.8161C16.4713 14.8685 14.8687 16.4711 12.8164 16.9432C12.2079 17.0832 11.4719 17.0832 10.0001 17.0832C8.52824 17.0832 7.79231 17.0832 7.18377 16.9432C5.13142 16.4711 3.52884 14.8685 3.05673 12.8161C2.91675 12.2076 2.91675 11.4717 2.91675 9.99984ZM10.0001 6.24984C7.92914 6.24984 6.25008 7.9289 6.25008 9.99984C6.25008 12.0708 7.92914 13.7498 10.0001 13.7498C12.071 13.7498 13.7501 12.0708 13.7501 9.99984C13.7501 7.9289 12.071 6.24984 10.0001 6.24984ZM10.0001 12.3436C8.70821 12.3436 7.65633 11.2917 7.65633 9.99984C7.65633 8.70702 8.70821 7.65609 10.0001 7.65609C11.292 7.65609 12.3438 8.70702 12.3438 9.99984C12.3438 11.2917 11.292 12.3436 10.0001 12.3436ZM14.531 5.96859C14.531 6.24456 14.3073 6.46828 14.0313 6.46828C13.7554 6.46828 13.5317 6.24456 13.5317 5.96859C13.5317 5.69262 13.7554 5.4689 14.0313 5.4689C14.3073 5.4689 14.531 5.69262 14.531 5.96859Z"/>
    </symbol>
</svg>