<?xml version="1.0" standalone="no"?>
<!DOCTYPE svg PUBLIC "-//W3C//DTD SVG 20010904//EN"
 "http://www.w3.org/TR/2001/REC-SVG-20010904/DTD/svg10.dtd">
<svg version="1.0" xmlns="http://www.w3.org/2000/svg"
 width="512.000000pt" height="512.000000pt" viewBox="0 0 512.000000 512.000000"
 preserveAspectRatio="xMidYMid meet">
<metadata>
Created by potrace 1.14, written by Peter Selinger 2001-2017
</metadata>
<g transform="translate(0.000000,512.000000) scale(0.100000,-0.100000)"
fill="#000000" stroke="none">
<path d="M980 2905 l0 -305 145 0 145 0 0 64 0 65 56 45 56 46 51 -58 c29 -31
74 -81 102 -110 l50 -53 173 3 173 3 -170 190 c-94 104 -169 190 -168 191 1 0
67 51 145 113 l144 111 -164 0 -165 0 -134 -105 c-74 -58 -137 -105 -141 -105
-5 0 -8 47 -8 105 l0 105 -145 0 -145 0 0 -305z"/>
<path d="M2000 2905 l0 -305 145 0 145 0 0 127 0 128 127 -128 128 -127 132
132 133 133 0 -133 0 -132 145 0 145 0 0 305 0 305 -128 0 -127 0 -150 -150
-150 -150 -150 150 -150 150 -123 0 -122 0 0 -305z"/>
<path d="M3210 2905 l0 -305 150 0 150 0 0 125 0 125 250 0 250 0 0 60 0 60
-247 2 -248 3 -3 53 -3 52 305 0 306 0 0 65 0 65 -455 0 -455 0 0 -305z"/>
<path d="M510 2270 l0 -230 45 0 45 0 0 230 0 230 -45 0 -45 0 0 -230z"/>
<path d="M970 2270 l0 -230 45 0 45 0 0 92 0 92 68 -92 67 -91 53 -1 53 0 -76
90 -77 90 51 59 c28 32 57 64 66 71 25 21 17 30 -29 30 -44 0 -46 -2 -108 -77
l-63 -78 -3 138 -3 137 -44 0 -45 0 0 -230z"/>
<path d="M2160 2270 l0 -230 40 0 40 0 0 113 c0 105 2 115 23 135 29 27 70 37
96 23 28 -16 41 -70 41 -178 l0 -93 40 0 40 0 0 120 c0 131 -11 176 -51 204
-36 25 -109 21 -153 -9 l-36 -24 0 84 0 85 -40 0 -40 0 0 -230z"/>
<path d="M721 2366 c-46 -26 -65 -93 -37 -131 8 -11 42 -33 77 -50 46 -22 65
-36 67 -52 6 -41 -52 -52 -135 -27 -20 6 -23 3 -23 -24 0 -27 5 -32 38 -41 46
-14 78 -14 121 -1 54 15 81 47 81 95 0 56 -19 78 -88 104 -33 12 -63 29 -66
38 -15 38 45 58 117 40 25 -7 27 -5 27 22 0 21 -6 30 -22 35 -40 10 -132 6
-157 -8z"/>
<path d="M1402 2363 c-53 -26 -76 -68 -80 -143 -4 -76 16 -122 67 -157 41 -28
118 -38 181 -23 47 11 50 14 50 45 l0 33 -42 -15 c-62 -21 -117 -11 -150 27
-50 55 -43 60 97 60 l125 0 -6 43 c-10 64 -38 112 -78 131 -43 20 -121 20
-164 -1z m139 -61 c10 -9 20 -27 24 -39 6 -23 5 -23 -79 -23 -92 0 -100 5 -70
48 30 44 90 50 125 14z"/>
<path d="M1710 2210 l0 -170 40 0 40 0 0 110 c0 107 1 112 26 135 19 18 38 25
65 25 38 0 39 1 39 35 0 34 -1 35 -39 35 -27 0 -46 -7 -65 -25 -15 -14 -29
-25 -32 -25 -2 0 -4 11 -4 25 0 22 -4 25 -35 25 l-35 0 0 -170z"/>
<path d="M2613 2365 c-25 -11 -33 -20 -33 -41 0 -21 3 -25 18 -19 70 29 142
22 162 -15 21 -40 13 -45 -64 -45 -81 0 -117 -16 -146 -67 -19 -36 -4 -94 32
-121 42 -32 116 -28 162 7 l36 27 0 -25 c0 -23 4 -26 35 -26 l35 0 0 115 c0
138 -15 185 -65 209 -41 20 -129 20 -172 1z m157 -200 c0 -29 -6 -39 -32 -55
-40 -24 -66 -25 -96 -4 -27 19 -28 48 -2 74 15 15 33 20 75 20 l55 0 0 -35z"/>
<path d="M2920 2211 l0 -171 45 0 45 0 0 111 c0 61 4 119 10 129 14 26 73 44
99 30 34 -18 41 -44 41 -159 l0 -111 40 0 40 0 0 131 c0 176 -20 209 -125 209
-32 0 -51 -7 -74 -25 l-30 -26 -3 23 c-2 19 -10 24 -45 26 l-43 3 0 -170z"/>
<path d="M3290 2376 c0 -3 30 -80 66 -171 l66 -166 -22 -52 c-12 -29 -24 -58
-27 -65 -4 -10 5 -13 38 -10 l43 3 83 220 c45 121 82 223 83 228 0 4 -17 7
-38 7 l-38 0 -38 -122 c-22 -68 -41 -118 -43 -113 -2 6 -23 62 -46 125 l-42
115 -42 3 c-24 2 -43 1 -43 -2z"/>
<path d="M3792 2355 c-36 -30 -42 -31 -42 -5 0 16 -7 20 -35 20 l-35 0 0 -165
0 -165 40 0 40 0 0 120 0 120 33 20 c41 25 59 25 83 -1 16 -18 20 -40 22 -140
l4 -119 39 0 39 0 0 120 0 120 33 20 c40 25 49 25 78 1 22 -18 24 -27 28 -140
l3 -121 40 0 40 0 -4 141 -3 141 -33 29 c-25 22 -42 29 -75 29 -43 0 -107 -30
-107 -51 0 -6 -16 3 -35 20 -47 41 -109 43 -153 6z"/>
<path d="M4250 2363 c0 -5 29 -80 64 -167 l63 -159 -23 -58 c-13 -32 -24 -61
-24 -64 0 -3 17 -5 38 -5 l38 0 64 168 c34 92 73 195 86 230 l24 62 -39 0 -40
0 -38 -115 c-20 -63 -40 -115 -44 -115 -3 0 -24 51 -45 113 l-40 112 -42 3
c-23 2 -42 -1 -42 -5z"/>
</g>
</svg>
